<svg xmlns="http://www.w3.org/2000/svg" width="32.777" height="32.777" viewBox="0 0 32.777 32.777"><defs><style>.a{fill:#fff;}</style></defs><path class="a" d="M10.686,401.7a.49.49,0,0,1,.073-.7l1.376-1.376a1.974,1.974,0,0,1,3.1-.04l.033.033a2.033,2.033,0,0,1-.093,3.177l-.658.658,1.436,1.436c.213.213.06.578-.2.838s-.625.412-.837.2Zm1.629-.445,1.4,1.4.658-.658a.8.8,0,0,0-.067-1.263l-.073-.073a.8.8,0,0,0-1.263-.066Zm0,0" transform="translate(-9.895 -373.319)"/><path class="a" d="M74.712,336.964a.438.438,0,0,1,.007-.631l1.376-1.376c.911-.911,1.974-1.3,3.058-.213A1.852,1.852,0,0,1,79.7,336.9l2.28.658a.308.308,0,0,1,.153.087.955.955,0,0,1-.113,1.19.5.5,0,0,1-.525.14l-2.679-.857-.439.439,1.6,1.6c.213.213.06.578-.2.837s-.625.412-.837.2Zm1.628-.445,1.237,1.236.658-.658A.875.875,0,0,0,77,335.861Zm0,0" transform="translate(-69.806 -312.699)"/><path class="a" d="M140.977,296.564c-.219-.22-.053-.572.206-.831s.611-.426.831-.206l4.228,4.228c.213.213.06.578-.2.837s-.625.412-.837.2Zm0,0" transform="translate(-131.857 -276.512)"/><path class="a" d="M184.685,244.209l-1.762-1.762a2.31,2.31,0,0,1,3.264-3.264l1.762,1.762a2.31,2.31,0,0,1-3.264,3.264Zm.465-3.988a.847.847,0,1,0-1.19,1.19l1.762,1.761a.847.847,0,1,0,1.19-1.19Zm0,0" transform="translate(-170.513 -223.174)"/><path class="a" d="M238.873,172.8a.437.437,0,0,1,.007-.631l1.376-1.376c.911-.911,1.974-1.3,3.058-.213a1.852,1.852,0,0,1,.545,2.154l2.28.658a.307.307,0,0,1,.153.087.955.955,0,0,1-.113,1.19.5.5,0,0,1-.525.14l-2.679-.857-.439.439,1.6,1.6c.213.213.06.578-.2.838s-.625.412-.837.2Zm1.629-.445,1.236,1.236.658-.658a.875.875,0,0,0-1.236-1.236Zm0,0" transform="translate(-223.458 -159.048)"/><path class="a" d="M305.137,132.4c-.219-.219-.053-.572.206-.831s.611-.425.831-.206l4.228,4.228c.213.213.06.578-.2.837s-.625.412-.837.2Zm0,0" transform="translate(-285.508 -122.861)"/><path class="a" d="M335.736,65.023c.219-.219.552-.073.771.146.253.253.359.585.16.784l-.917.918,3.609,3.609c.213.213.06.578-.2.837s-.625.412-.837.2l-3.61-3.61-.917.917c-.2.2-.532.093-.784-.159-.219-.22-.366-.552-.146-.771Zm0,0" transform="translate(-311.453 -60.758)"/><path class="a" d="M399.638,5.006a.243.243,0,0,0-.12-.067l-3.656-.9a.222.222,0,0,1-.086-.06c-.246-.246-.007-.844.279-1.13a.423.423,0,0,1,.492-.107l2.639.778L398.4.884a.415.415,0,0,1,.106-.492c.286-.286.884-.525,1.13-.279A.219.219,0,0,1,399.7.2l.911,3.65a.241.241,0,0,0,.067.12l1.668,1.668c.213.213.06.578-.2.837s-.625.412-.838.2Zm0,0" transform="translate(-370.344 -0.01)"/><path class="a" d="M101.563,91a10.567,10.567,0,0,0-10.345,12.7L103.7,91.217A10.576,10.576,0,0,0,101.563,91Zm0,0" transform="translate(-85.174 -85.174)"/><path class="a" d="M3.9,16.389A12.487,12.487,0,0,1,20.1,4.469l3.027-3.027A16.4,16.4,0,0,0,1.441,23.129L4.469,20.1A12.439,12.439,0,0,1,3.9,16.389Zm0,0" transform="translate(0 0)"/><path class="a" d="M240.988,251.551a10.575,10.575,0,0,0,10.563-10.563q0-.52-.05-1.027l-11.54,11.54Q240.468,251.55,240.988,251.551Zm0,0" transform="translate(-224.599 -224.599)"/><path class="a" d="M185.988,164.827l-3.135,3.135a12.486,12.486,0,0,1-14.89,14.89l-3.135,3.135a16.408,16.408,0,0,0,21.16-21.16Zm0,0" transform="translate(-154.277 -154.275)"/></svg>