<svg xmlns="http://www.w3.org/2000/svg" width="18" height="18" viewBox="0 0 18 18"><defs><style>.a{fill:#fff;}</style></defs><g transform="translate(0 6)"><path class="a" d="M17.625,181.916H17.25V171.041a.375.375,0,0,0-.375-.375h-2.25a.375.375,0,0,0-.375.375v10.875h-1.5v-6.375a.375.375,0,0,0-.375-.375h-2.25a.375.375,0,0,0-.375.375v6.375H8.25v-7.875a.375.375,0,0,0-.375-.375H5.625a.375.375,0,0,0-.375.375v7.875H3.75v-4.125a.375.375,0,0,0-.375-.375H1.125a.375.375,0,0,0-.375.375v4.125H.375a.375.375,0,1,0,0,.75h17.25a.375.375,0,1,0,0-.75Z" transform="translate(0 -170.666)"/></g><g transform="translate(0.75)"><path class="a" d="M36.333,0a1.491,1.491,0,0,0-1.288,2.258L32.59,4.712a1.472,1.472,0,0,0-1.918.349l-1.843-.526c0-.012,0-.023,0-.036a1.5,1.5,0,0,0-3,0,1.482,1.482,0,0,0,.133.61L23.622,6.98a1.479,1.479,0,0,0-.789-.23,1.5,1.5,0,1,0,1.5,1.5,1.479,1.479,0,0,0-.194-.723l2.3-1.832a1.481,1.481,0,0,0,2.185-.438l1.738.5A1.421,1.421,0,0,0,30.333,6a1.5,1.5,0,1,0,2.788-.758l2.455-2.455A1.478,1.478,0,0,0,36.333,3a1.5,1.5,0,0,0,0-3Z" transform="translate(-21.333)"/></g></svg>