<svg xmlns="http://www.w3.org/2000/svg" width="21" height="14.7" viewBox="0 0 21 14.7"><defs><style>.a{fill:#fff;}</style></defs><path class="a" d="M19.95,2.25H1.05A1.05,1.05,0,0,0,0,3.3V15.9a1.05,1.05,0,0,0,1.05,1.05h18.9A1.05,1.05,0,0,0,21,15.9V3.3A1.05,1.05,0,0,0,19.95,2.25ZM5.775,11.959v.529a.262.262,0,0,1-.263.262H4.988a.262.262,0,0,1-.262-.262v-.535A1.879,1.879,0,0,1,3.7,11.581a.263.263,0,0,1-.019-.4l.386-.368a.269.269,0,0,1,.332-.024.79.79,0,0,0,.421.122h.922a.413.413,0,0,0,.387-.433.428.428,0,0,0-.288-.418L4.361,9.619A1.485,1.485,0,0,1,3.325,8.2a1.461,1.461,0,0,1,1.4-1.479V6.188a.262.262,0,0,1,.262-.262h.525a.262.262,0,0,1,.262.262v.535A1.876,1.876,0,0,1,6.8,7.094a.263.263,0,0,1,.019.4l-.386.368a.269.269,0,0,1-.332.024.787.787,0,0,0-.421-.122H4.762a.413.413,0,0,0-.387.433.428.428,0,0,0,.288.418l1.477.443A1.485,1.485,0,0,1,7.175,10.48,1.461,1.461,0,0,1,5.775,11.959Zm7.875-.521a.262.262,0,0,1-.262.263H9.713a.262.262,0,0,1-.262-.263v-.525a.262.262,0,0,1,.262-.263h3.675a.262.262,0,0,1,.262.263Zm5.25,0a.262.262,0,0,1-.263.263H16.013a.262.262,0,0,1-.262-.263v-.525a.262.262,0,0,1,.262-.263h2.625a.262.262,0,0,1,.263.263Zm0-3.15a.262.262,0,0,1-.263.262H9.713a.262.262,0,0,1-.262-.262V7.763A.262.262,0,0,1,9.713,7.5h8.925a.262.262,0,0,1,.263.262Z" transform="translate(0 -2.25)"/></svg>