<svg id="customer" xmlns="http://www.w3.org/2000/svg" width="21.999" height="18.912" viewBox="0 0 21.999 18.912">
  <circle id="Ellipse_391" data-name="Ellipse 391" cx="4" cy="4" r="4" transform="translate(7)" fill="#fff"/>
  <circle id="Ellipse_392" data-name="Ellipse 392" cx="2.5" cy="2.5" r="2.5" transform="translate(16 3)" fill="#fff"/>
  <circle id="Ellipse_393" data-name="Ellipse 393" cx="2.5" cy="2.5" r="2.5" transform="translate(1 3)" fill="#fff"/>
  <path id="Path_105131" data-name="Path 105131" d="M5.766,241.194a3.821,3.821,0,0,0-2.848-.661A2.912,2.912,0,0,0,0,243.432v4.692a1.263,1.263,0,0,0,1.264,1.259c3.009,0,2.646.054,2.646-.13C3.91,245.929,3.516,243.49,5.766,241.194Z" transform="translate(0 -231.878)" fill="#fff"/>
  <path id="Path_105132" data-name="Path 105132" d="M127.043,239.9a6.379,6.379,0,0,0-4.92,1.164c-2.357,1.888-1.9,4.43-1.9,7.54a1.507,1.507,0,0,0,1.5,1.5c9.069,0,9.43.293,9.968-.9.176-.4.128-.275.128-4.128A5.209,5.209,0,0,0,127.043,239.9Z" transform="translate(-115.021 -231.229)" fill="#fff"/>
  <path id="Path_105133" data-name="Path 105133" d="M380.658,240.534a3.819,3.819,0,0,0-2.848.661c2.233,2.28,1.856,4.552,1.856,8.06,0,.185-.3.13,2.6.13a1.308,1.308,0,0,0,1.309-1.3v-4.648A2.912,2.912,0,0,0,380.658,240.534Z" transform="translate(-361.577 -231.879)" fill="#fff"/>
</svg>
