<svg id="_041-doc" data-name="041-doc" xmlns="http://www.w3.org/2000/svg" width="32" height="32" viewBox="0 0 32 32">
  <path id="Path_105375" data-name="Path 105375" d="M26,32H6a6,6,0,0,1-6-6V6A6,6,0,0,1,6,0H26a6,6,0,0,1,6,6V26A6,6,0,0,1,26,32Z" fill="rgba(25,50,86,0.16)"/>
  <path id="Path_105376" data-name="Path 105376" d="M12.833,18.333h-.5v2h.5A.167.167,0,0,0,13,20.166V18.5A.167.167,0,0,0,12.833,18.333Z" fill="#193256"/>
  <path id="Path_105377" data-name="Path 105377" d="M16.167,18.333h-.333a.167.167,0,0,0-.167.167v1.667a.167.167,0,0,0,.167.167h.333a.167.167,0,0,0,.167-.167V18.5A.169.169,0,0,0,16.167,18.333Z" fill="#193256"/>
  <path id="Path_105378" data-name="Path 105378" d="M20.833,8H11.166A1.835,1.835,0,0,0,9.333,9.833V22.166A1.835,1.835,0,0,0,11.166,24h9.667a1.835,1.835,0,0,0,1.833-1.833V9.833A1.834,1.834,0,0,0,20.833,8ZM14,20.167a1.168,1.168,0,0,1-1.167,1.167h-1a.5.5,0,0,1-.5-.5v-3a.5.5,0,0,1,.5-.5h1A1.168,1.168,0,0,1,14,18.5Zm3.333,0a1.168,1.168,0,0,1-1.167,1.167h-.333a1.168,1.168,0,0,1-1.167-1.167V18.5a1.168,1.168,0,0,1,1.167-1.167h.333A1.168,1.168,0,0,1,17.333,18.5Zm1.834.166h1a.5.5,0,0,1,0,1h-1A1.168,1.168,0,0,1,18,20.166V18.5a1.168,1.168,0,0,1,1.167-1.167h1a.5.5,0,0,1,0,1h-1A.167.167,0,0,0,19,18.5v1.667A.167.167,0,0,0,19.167,20.333Z" fill="#193256"/>
</svg>
