<svg xmlns="http://www.w3.org/2000/svg" width="28" height="28" viewBox="0 0 28 28"><defs><style>.a,.b{fill:#f18a00;}.a{opacity:0.29;}</style></defs><path class="a" d="M22.75,28H5.25A5.25,5.25,0,0,1,0,22.75V5.25A5.25,5.25,0,0,1,5.25,0h17.5A5.25,5.25,0,0,1,28,5.25v17.5A5.25,5.25,0,0,1,22.75,28Z"/><g transform="translate(7.025 8.769)"><path class="b" d="M19.582,16.1v-.29a.146.146,0,0,0-.146-.146H19v.582h.436A.147.147,0,0,0,19.582,16.1Z" transform="translate(-9.41 -10.726)"/><path class="b" d="M12.915,16.1v-.29a.146.146,0,0,0-.146-.146h-.436v.582h.436A.147.147,0,0,0,12.915,16.1Z" transform="translate(-8.555 -10.726)"/><path class="b" d="M15.957,15.667a.291.291,0,0,0-.29.29v.29h.582v-.29A.292.292,0,0,0,15.957,15.667Z" transform="translate(-8.983 -10.726)"/><path class="b" d="M20.351,11.162H13.993l-1.035-1.035A.439.439,0,0,0,12.649,10H9.6A1.6,1.6,0,0,0,8,11.6v7.265a1.6,1.6,0,0,0,1.6,1.6H20.35a1.6,1.6,0,0,0,1.6-1.6v-6.1A1.6,1.6,0,0,0,20.351,11.162Zm-7.12,4.214a1.013,1.013,0,0,1-.533.888l.445.594a.436.436,0,0,1-.087.61.435.435,0,0,1-.609-.087l-.669-.892v.63a.436.436,0,0,1-.872,0V14.5a.436.436,0,0,1,.436-.436h.872a1.019,1.019,0,0,1,1.017,1.017Zm2.906,1.744a.436.436,0,1,1-.872,0v-.726h-.582v.726a.436.436,0,0,1-.872,0V15.231a1.162,1.162,0,1,1,2.324,0V17.12Zm2.907-1.744a1.013,1.013,0,0,1-.533.888l.445.594a.436.436,0,0,1-.087.61.435.435,0,0,1-.609-.087l-.669-.892v.63a.436.436,0,0,1-.872,0V14.5a.436.436,0,0,1,.436-.436h.872a1.019,1.019,0,0,1,1.017,1.017Z" transform="translate(-8 -10)"/></g></svg>