<svg xmlns="http://www.w3.org/2000/svg" width="31.779" height="31.788" viewBox="0 0 31.779 31.788"><defs><style>.a{fill:#fff;}</style></defs><path class="a" d="M33.656,20.39a4.089,4.089,0,0,1,2.623-3.815,16.21,16.21,0,0,0-1.961-4.726,4.144,4.144,0,0,1-1.663.356,4.08,4.08,0,0,1-3.732-5.743A16.16,16.16,0,0,0,24.2,4.5a4.086,4.086,0,0,1-7.63,0,16.209,16.209,0,0,0-4.726,1.961A4.08,4.08,0,0,1,8.117,12.2a4.009,4.009,0,0,1-1.663-.356A16.568,16.568,0,0,0,4.5,16.583a4.088,4.088,0,0,1,.008,7.63A16.209,16.209,0,0,0,6.47,28.939a4.082,4.082,0,0,1,5.388,5.388,16.3,16.3,0,0,0,4.726,1.961,4.078,4.078,0,0,1,7.614,0,16.209,16.209,0,0,0,4.726-1.961,4.086,4.086,0,0,1,5.388-5.388,16.3,16.3,0,0,0,1.961-4.726A4.109,4.109,0,0,1,33.656,20.39ZM20.464,27a6.621,6.621,0,1,1,6.621-6.621A6.619,6.619,0,0,1,20.464,27Z" transform="translate(-4.5 -4.5)"/></svg>