<svg id="jpg-file" xmlns="http://www.w3.org/2000/svg" width="32" height="32" viewBox="0 0 32 32">
  <path id="Path_105409" data-name="Path 105409" d="M26,32H6a6,6,0,0,1-6-6V6A6,6,0,0,1,6,0H26a6,6,0,0,1,6,6V26A6,6,0,0,1,26,32Zm0,0" fill="rgba(0,187,180,0.13)"/>
  <g id="Group_68646" data-name="Group 68646" transform="translate(9.333 8)">
    <path id="Path_105410" data-name="Path 105410" d="M250.823,293.328h-.167v.667h.167c.228,0,.5-.058.5-.333S251.052,293.328,250.823,293.328Zm0,0" transform="translate(-244.323 -282.995)" fill="#00bbb4"/>
    <path id="Path_105411" data-name="Path 105411" d="M160.828,128h-9.667a1.835,1.835,0,0,0-1.833,1.833v12.333A1.835,1.835,0,0,0,151.161,144h9.667a1.835,1.835,0,0,0,1.833-1.833V129.833A1.834,1.834,0,0,0,160.828,128Zm-6.833,11.833a1.362,1.362,0,0,1-1.333,1.5A1.237,1.237,0,0,1,151.329,140v-.167a.5.5,0,0,1,1,0V140c0,.277.056.333.333.333s.333-.272.333-.5v-2a.5.5,0,0,1,1,0Zm1.833.167h-.167v.833a.5.5,0,0,1-1,0v-3a.5.5,0,0,1,.5-.5h.667a1.343,1.343,0,1,1,0,2.667Zm3.334.333h.5v-.2a.5.5,0,0,1,.167-.971h.333a.5.5,0,0,1,.5.5v1.167a.5.5,0,0,1-.5.5h-1a1.168,1.168,0,0,1-1.167-1.167V138.5a1.168,1.168,0,0,1,1.167-1.167h1a.5.5,0,0,1,0,1h-1a.167.167,0,0,0-.167.167v1.667A.167.167,0,0,0,159.162,140.333Zm0,0" transform="translate(-149.328 -128)" fill="#00bbb4"/>
  </g>
</svg>
