<svg xmlns="http://www.w3.org/2000/svg" width="24.317" height="24" viewBox="0 0 24.317 24">
  <g id="Marketing" transform="translate(-8225 22205)">
    <g id="Group_68707" data-name="Group 68707" transform="translate(-0.227 0.991)">
      <g id="Group_68652" data-name="Group 68652" transform="translate(8239.886 -22203.99) rotate(25)">
        <g id="Group_68651" data-name="Group 68651" transform="translate(0 0)">
          <path id="Path_105412" data-name="Path 105412" d="M10.3,8.555,2.1.359A1.232,1.232,0,1,0,.36,2.1l8.2,8.195A1.231,1.231,0,0,0,10.3,8.555Z" fill="#fff"/>
        </g>
      </g>
      <g id="Group_68654" data-name="Group 68654" transform="translate(8235.594 -22202.424) rotate(25)">
        <g id="Group_68653" data-name="Group 68653" transform="translate(0 0)">
          <path id="Path_105413" data-name="Path 105413" d="M2.98,0,2.918.309A13.232,13.232,0,0,1,0,6.22l4.458,4.458A13.188,13.188,0,0,1,10.34,7.731l.31-.062Z" fill="#fff"/>
        </g>
      </g>
      <g id="Group_68656" data-name="Group 68656" transform="translate(8228.582 -22197.813) rotate(25)">
        <g id="Group_68655" data-name="Group 68655" transform="translate(0 0)">
          <path id="Path_105414" data-name="Path 105414" d="M3.588,0,.541,3.046a1.846,1.846,0,0,0,0,2.612L2.282,7.4a1.846,1.846,0,0,0,2.612,0L7.94,4.352Zm.435,4.788a.615.615,0,0,1-.87-.87l.87-.87a.615.615,0,0,1,.87.87Z" fill="#fff"/>
        </g>
      </g>
      <g id="Group_68658" data-name="Group 68658" transform="translate(8233.05 -22191.695) rotate(25)">
        <g id="Group_68657" data-name="Group 68657" transform="translate(0 0)">
          <path id="Path_105415" data-name="Path 105415" d="M3.876,4.071l.837-.837a1.845,1.845,0,0,0,0-2.611L4.091,0A11.652,11.652,0,0,0,3.1.75l.743.744a.614.614,0,0,1,0,.87l-.851.851L1.741,2,0,3.743,2.793,6.449a1.231,1.231,0,0,0,1.74-1.742Z" fill="#fff"/>
        </g>
      </g>
      <g id="Group_68660" data-name="Group 68660" transform="translate(8244.26 -22202.137) rotate(25)">
        <g id="Group_68659" data-name="Group 68659" transform="translate(0 0)">
          <path id="Path_105416" data-name="Path 105416" d="M.616,0A.615.615,0,0,0,0,.616V1.847a.616.616,0,0,0,1.231,0V.616A.615.615,0,0,0,.616,0Z" fill="#fff"/>
        </g>
      </g>
      <g id="Group_68662" data-name="Group 68662" transform="translate(8245.526 -22196.113) rotate(25)">
        <g id="Group_68661" data-name="Group 68661" transform="translate(0 0)">
          <path id="Path_105417" data-name="Path 105417" d="M1.847,0H.616a.616.616,0,0,0,0,1.231H1.847A.616.616,0,0,0,1.847,0Z" fill="#fff"/>
        </g>
      </g>
      <g id="Group_68664" data-name="Group 68664" transform="translate(8245.972 -22199.98) rotate(25)">
        <g id="Group_68663" data-name="Group 68663" transform="translate(0 0)">
          <path id="Path_105418" data-name="Path 105418" d="M2.282.18a.615.615,0,0,0-.87,0L.18,1.411a.615.615,0,0,0,.87.87L2.282,1.051A.615.615,0,0,0,2.282.18Z" fill="#fff"/>
        </g>
      </g>
    </g>
    <rect id="Rectangle_3177" data-name="Rectangle 3177" width="24" height="24" transform="translate(8225 -22205)" fill="none"/>
  </g>
</svg>
