<svg id="tile" xmlns="http://www.w3.org/2000/svg" width="20" height="20" viewBox="0 0 20 20">
  <path id="Path_105136" data-name="Path 105136" d="M257.071,0H263.5a1.071,1.071,0,0,1,1.071,1.071V7.5A1.071,1.071,0,0,1,263.5,8.571h-6.429A1.071,1.071,0,0,1,256,7.5V1.071A1.071,1.071,0,0,1,257.071,0Zm0,0" transform="translate(-244.571)" fill="#fff"/>
  <path id="Path_105137" data-name="Path 105137" d="M1.071,0H7.5A1.071,1.071,0,0,1,8.571,1.071V7.5A1.071,1.071,0,0,1,7.5,8.571H1.071A1.071,1.071,0,0,1,0,7.5V1.071A1.071,1.071,0,0,1,1.071,0Zm0,0" fill="#fff"/>
  <path id="Path_105138" data-name="Path 105138" d="M257.071,256H263.5a1.071,1.071,0,0,1,1.071,1.071V263.5a1.071,1.071,0,0,1-1.071,1.071h-6.429A1.071,1.071,0,0,1,256,263.5v-6.429A1.071,1.071,0,0,1,257.071,256Zm0,0" transform="translate(-244.571 -244.571)" fill="#fff"/>
  <path id="Path_105139" data-name="Path 105139" d="M1.071,256H7.5a1.071,1.071,0,0,1,1.071,1.071V263.5A1.071,1.071,0,0,1,7.5,264.571H1.071A1.071,1.071,0,0,1,0,263.5v-6.429A1.071,1.071,0,0,1,1.071,256Zm0,0" transform="translate(0 -244.571)" fill="#fff"/>
</svg>
