<svg xmlns="http://www.w3.org/2000/svg" width="18.999" height="14.515" viewBox="0 0 18.999 14.515"><defs><style>.a{fill:#fff;}</style></defs><g transform="translate(0 0)"><path class="a" d="M35.511,35.049h0a.67.67,0,0,0-.476.2.677.677,0,0,0-.2.483V45.923a.682.682,0,0,0,.681.68,8.41,8.41,0,0,1,6.063,2.248V38.182a.651.651,0,0,0-.093-.344C39.982,35.42,37.1,35.053,35.511,35.049Z" transform="translate(-32.605 -35.049)"/><path class="a" d="M163.494,45.922V35.728a.677.677,0,0,0-.2-.483.67.67,0,0,0-.476-.2h0c-1.586,0-4.471.371-5.972,2.789a.651.651,0,0,0-.093.344V48.85a8.41,8.41,0,0,1,6.063-2.248A.682.682,0,0,0,163.494,45.922Z" transform="translate(-146.724 -35.048)"/><path class="a" d="M178.831,71.8h-.493v8.523a1.739,1.739,0,0,1-1.734,1.735,7.541,7.541,0,0,0-5.123,1.749,16.366,16.366,0,0,1,7.2.139.68.68,0,0,0,.832-.662v-10.8A.68.68,0,0,0,178.831,71.8Z" transform="translate(-160.512 -69.45)"/><path class="a" d="M1.173,80.324V71.8H.68a.681.681,0,0,0-.68.68v10.8a.68.68,0,0,0,.832.662,16.365,16.365,0,0,1,7.2-.139,7.541,7.541,0,0,0-5.123-1.749A1.739,1.739,0,0,1,1.173,80.324Z" transform="translate(0 -69.45)"/></g></svg>