<svg id="_116-pdf" data-name="116-pdf" xmlns="http://www.w3.org/2000/svg" width="32" height="32" viewBox="0 0 32 32">
  <path id="Path_105389" data-name="Path 105389" d="M26,32H6a6,6,0,0,1-6-6V6A6,6,0,0,1,6,0H26a6,6,0,0,1,6,6V26A6,6,0,0,1,26,32Z" fill="rgba(241,138,0,0.24)"/>
  <path id="Path_105390" data-name="Path 105390" d="M12.667,18.333h-.333V19h.333a.334.334,0,0,0,0-.667Z" fill="#fd907e"/>
  <path id="Path_105391" data-name="Path 105391" d="M16.167,18.333h-.5v2h.5a.167.167,0,0,0,.167-.167V18.5A.169.169,0,0,0,16.167,18.333Z" fill="#fd907e"/>
  <path id="Path_105392" data-name="Path 105392" d="M20.833,8H11.166A1.835,1.835,0,0,0,9.333,9.833V22.166A1.835,1.835,0,0,0,11.166,24h9.667a1.835,1.835,0,0,0,1.833-1.833V9.833A1.834,1.834,0,0,0,20.833,8ZM12.667,20h-.333v.833a.5.5,0,0,1-1,0v-3a.5.5,0,0,1,.5-.5h.833a1.334,1.334,0,0,1,0,2.667Zm4.666.167a1.168,1.168,0,0,1-1.167,1.167h-1a.5.5,0,0,1-.5-.5v-3a.5.5,0,0,1,.5-.5h1A1.168,1.168,0,0,1,17.333,18.5ZM20.167,19a.5.5,0,0,1,0,1H19v.833a.5.5,0,0,1-1,0V18.5a1.168,1.168,0,0,1,1.167-1.167h1a.5.5,0,0,1,0,1h-1A.167.167,0,0,0,19,18.5V19Z" fill="#f18a00"/>
</svg>
