<svg xmlns="http://www.w3.org/2000/svg" width="19.001" height="19.002" viewBox="0 0 19.001 19.002"><defs><style>.a{fill:#fff;}</style></defs><path class="a" d="M17.959,7.438l-1.488-.189a7.482,7.482,0,0,0-.451-1.088l.919-1.184a1.177,1.177,0,0,0-.1-1.567L15.6,2.163a1.18,1.18,0,0,0-1.572-.1l-1.182.919a7.455,7.455,0,0,0-1.089-.451l-.189-1.486A1.186,1.186,0,0,0,10.388,0H8.614A1.186,1.186,0,0,0,7.438,1.043L7.248,2.531a7.369,7.369,0,0,0-1.089.451L4.977,2.062a1.178,1.178,0,0,0-1.567.1L2.163,3.405a1.18,1.18,0,0,0-.1,1.572l.919,1.183a7.4,7.4,0,0,0-.451,1.088l-1.486.189A1.186,1.186,0,0,0,0,8.614v1.773a1.186,1.186,0,0,0,1.043,1.177l1.488.189a7.482,7.482,0,0,0,.451,1.088l-.919,1.184a1.177,1.177,0,0,0,.1,1.567l1.247,1.247a1.181,1.181,0,0,0,1.572.1l1.183-.919a7.309,7.309,0,0,0,1.088.451l.189,1.485A1.186,1.186,0,0,0,8.614,19h1.773a1.186,1.186,0,0,0,1.177-1.043l.189-1.488a7.482,7.482,0,0,0,1.088-.451l1.184.919a1.177,1.177,0,0,0,1.567-.1L16.839,15.6a1.179,1.179,0,0,0,.1-1.572l-.919-1.183a7.31,7.31,0,0,0,.451-1.088l1.485-.189A1.186,1.186,0,0,0,19,10.388V8.614a1.184,1.184,0,0,0-1.042-1.177ZM9.5,13.46A3.959,3.959,0,1,1,13.46,9.5,3.963,3.963,0,0,1,9.5,13.46Z" transform="translate(0)"/></svg>