<svg id="id-card" xmlns="http://www.w3.org/2000/svg" width="17.43" height="26.762" viewBox="0 0 17.43 26.762">
  <g id="Group_68190" data-name="Group 68190">
    <g id="Group_68189" data-name="Group 68189">
      <path id="Path_105134" data-name="Path 105134" d="M157.567,143.949a2.2,2.2,0,1,0-2.2-2.2A2.2,2.2,0,0,0,157.567,143.949Z" transform="translate(-148.852 -129.431)" fill="#fff"/>
      <path id="Path_105135" data-name="Path 105135" d="M81.67,3.2H77.707V.687A.687.687,0,0,0,77.02,0H74.27a.687.687,0,0,0-.687.687V3.2H69.62a2.69,2.69,0,0,0-2.69,2.69V24.072a2.69,2.69,0,0,0,2.69,2.69H81.67a2.69,2.69,0,0,0,2.69-2.69V5.891A2.69,2.69,0,0,0,81.67,3.2ZM74.754,1h1.782a.438.438,0,0,1,0,.876H74.754a.438.438,0,0,1,0-.876ZM73.383,4.113h.2v.179a.687.687,0,0,0,.687.687h2.75a.687.687,0,0,0,.687-.687V4.113h.2a.747.747,0,0,1,0,1.494H73.383a.747.747,0,1,1,0-1.494Zm-2.36,4.954h9.244v8.752H79.2l.138-1.79a.87.87,0,0,0-.867-.937H72.817a.87.87,0,0,0-.868.937l.138,1.79H71.023V9.068Zm9.135,13.845H71.132a.84.84,0,0,1,0-1.681h9.026a.84.84,0,0,1,0,1.681Z" transform="translate(-66.93)" fill="#fff"/>
    </g>
  </g>
</svg>
