<svg xmlns="http://www.w3.org/2000/svg" width="30" height="30" viewBox="0 0 30 30"><defs><style>.a{fill:#7d9eb5;}.b{fill:#fff;}</style></defs><g transform="translate(0.125)"><circle class="a" cx="15" cy="15" r="15" transform="translate(-0.125)"/><path class="b" d="M3.772,7.329H13.2v5.658H3.772Zm11.787,2.829a1.414,1.414,0,0,0,1.414,1.414V14.4a1.414,1.414,0,0,1-1.414,1.414H1.414A1.414,1.414,0,0,1,0,14.4V11.572a1.414,1.414,0,0,0,1.414-1.414A1.414,1.414,0,0,0,0,8.743V5.914A1.414,1.414,0,0,1,1.414,4.5H15.559a1.414,1.414,0,0,1,1.414,1.414V8.743A1.414,1.414,0,0,0,15.559,10.158ZM14.145,7.093a.707.707,0,0,0-.707-.707h-9.9a.707.707,0,0,0-.707.707v6.129a.707.707,0,0,0,.707.707h9.9a.707.707,0,0,0,.707-.707Z" transform="translate(6.824 4.447)"/></g></svg>