<svg xmlns="http://www.w3.org/2000/svg" width="18.42" height="18.419" viewBox="0 0 18.42 18.419"><defs><style>.a{fill:#fff;}</style></defs><path class="a" d="M207.882,6.7c5.993,0,5.55,0,5.642,0a1.241,1.241,0,0,0-.324-.565l-1.643-1.643a1.229,1.229,0,0,0-1.356-.257.654.654,0,0,1-.863-.862,1.229,1.229,0,0,0-.257-1.357L207.439.373a1.25,1.25,0,0,0-1.766,0l-2.056,2.056L207.882,6.7Z" transform="translate(-196.263 -0.008)"/><path class="a" d="M88.933,88.248l-3.5,3.5h7Z" transform="translate(-82.345 -85.061)"/><path class="a" d="M408.015,219.934a1.229,1.229,0,0,0,.778-1.141V216.47a1.25,1.25,0,0,0-1.249-1.249H405v10.646h2.543a1.25,1.25,0,0,0,1.249-1.249v-2.324a1.229,1.229,0,0,0-.778-1.141.654.654,0,0,1,0-1.22Z" transform="translate(-390.372 -207.448)"/><path class="a" d="M0,216.47v2.324a1.229,1.229,0,0,0,.778,1.141.654.654,0,0,1,0,1.22A1.229,1.229,0,0,0,0,222.295v2.324a1.25,1.25,0,0,0,1.249,1.249h12.3V215.221H1.249A1.25,1.25,0,0,0,0,216.47Zm3.792,1.271h8.126v1.084H3.792Zm0,2.167h8.126v1.084H3.792Zm0,2.167h8.126v1.084H3.792Z" transform="translate(0 -207.448)"/></svg>