<svg xmlns="http://www.w3.org/2000/svg" width="40" height="24" viewBox="0 0 40 24"><defs><style>.a,.b{fill:#f18a00;}.a{opacity:0.21;}.b{stroke:#f18a00;stroke-linecap:round;stroke-linejoin:round;}</style></defs><rect class="a" width="40" height="24" rx="12"/><g transform="translate(12 13.519) rotate(-90)"><path class="b" d="M2.893,1.446A1.446,1.446,0,1,1,1.446,0,1.446,1.446,0,0,1,2.893,1.446Z" transform="translate(0 6.125)"/><path class="b" d="M2.893,1.446A1.446,1.446,0,1,1,1.446,0,1.446,1.446,0,0,1,2.893,1.446Z"/><path class="b" d="M2.893,1.446A1.446,1.446,0,1,1,1.446,0,1.446,1.446,0,0,1,2.893,1.446Z" transform="translate(0 13.25)"/></g></svg>