<svg xmlns="http://www.w3.org/2000/svg" width="48" height="48" viewBox="0 0 48 48">
  <g id="Work_in_progress" data-name="Work in progress" transform="translate(-513.274 -184)">
    <circle id="Ellipse_91" data-name="Ellipse 91" cx="24" cy="24" r="24" transform="translate(513.274 184)" fill="#f18a00"/>
    <g id="arrows" transform="translate(521.629 192.821)">
      <path id="Path_105090" data-name="Path 105090" d="M94.879,15.75a.959.959,0,0,0-1.354.084l-.016.017V15.18A14.684,14.684,0,0,0,72.024,2.171a14.8,14.8,0,0,0-5.119,4.447.959.959,0,0,0,1.558,1.12A12.761,12.761,0,0,1,91.591,15.18v.672l-.016-.017a.959.959,0,0,0-1.438,1.27l1.694,1.918a.96.96,0,0,0,1.438,0L94.963,17.1a.959.959,0,0,0-.084-1.354Zm0,0" transform="translate(-62.458)" fill="#fff"/>
      <path id="Path_105091" data-name="Path 105091" d="M28.078,176.195a.96.96,0,0,0-1.339.219,12.761,12.761,0,0,1-23.128-7.442V168.3l.016.018a.959.959,0,0,0,1.438-1.27l-1.694-1.918a.959.959,0,0,0-1.438,0L.239,167.047a.959.959,0,1,0,1.438,1.27l.015-.018v.672a14.684,14.684,0,0,0,21.486,13.009,14.806,14.806,0,0,0,5.119-4.447.959.959,0,0,0-.219-1.339Zm0,0" transform="translate(0 -153.796)" fill="#fff"/>
      <path id="Path_105092" data-name="Path 105092" d="M107.568,90.24a.958.958,0,0,0,.1.728l1.919,3.324a.959.959,0,0,0,1.31.351l1.411-.814a7.729,7.729,0,0,0,1.849,1.07v1.627a.959.959,0,0,0,.959.959h3.837a.96.96,0,0,0,.959-.959V94.9a7.73,7.73,0,0,0,1.849-1.07l1.411.814a.959.959,0,0,0,1.31-.351l1.919-3.324a.959.959,0,0,0-.351-1.31l-1.414-.816a7.721,7.721,0,0,0,0-2.13l1.416-.817a.959.959,0,0,0,.351-1.311l-1.919-3.323a.959.959,0,0,0-1.31-.351l-1.42.82a7.734,7.734,0,0,0-1.84-1.063V79.026a.959.959,0,0,0-.959-.959h-3.837a.959.959,0,0,0-.959.959v1.639a7.732,7.732,0,0,0-1.839,1.063l-1.42-.82a.959.959,0,0,0-1.31.351l-1.919,3.323a.959.959,0,0,0,.351,1.311l1.416.817a7.722,7.722,0,0,0,0,2.13l-1.414.816a.959.959,0,0,0-.447.583ZM117.03,84.9a2.878,2.878,0,1,1-2.878,2.878A2.878,2.878,0,0,1,117.03,84.9Zm0,0" transform="translate(-100.658 -72.605)" fill="#fff"/>
    </g>
  </g>
</svg>
