<svg id="_128-xls_file_format" data-name="128-xls file format" xmlns="http://www.w3.org/2000/svg" width="32" height="32" viewBox="0 0 32 32">
  <path id="Path_105387" data-name="Path 105387" d="M26,32H6a6,6,0,0,1-6-6V6A6,6,0,0,1,6,0H26a6,6,0,0,1,6,6V26A6,6,0,0,1,26,32Z" fill="rgba(118,188,33,0.23)"/>
  <path id="Path_105388" data-name="Path 105388" d="M20.833,8H11.166A1.835,1.835,0,0,0,9.333,9.833V22.166A1.835,1.835,0,0,0,11.166,24h9.667a1.835,1.835,0,0,0,1.833-1.833V9.833A1.834,1.834,0,0,0,20.833,8Zm-6.9,12.591a.5.5,0,0,1-.194.68.494.494,0,0,1-.242.063.5.5,0,0,1-.438-.257l-.4-.714-.4.714a.5.5,0,0,1-.438.257.494.494,0,0,1-.242-.063.5.5,0,0,1-.194-.68l.7-1.257-.7-1.257a.5.5,0,0,1,.874-.486l.4.714.4-.714a.5.5,0,1,1,.874.486l-.7,1.257Zm2.9.742H15.166a.5.5,0,0,1-.5-.5v-3a.5.5,0,0,1,1,0v2.5h1.167a.5.5,0,0,1,0,1Zm2.362-2.5h.277a1.251,1.251,0,0,1,0,2.5H18.5a.5.5,0,0,1,0-1h.972a.258.258,0,0,0,0-.5h-.277a1.251,1.251,0,0,1,0-2.5h.972a.5.5,0,0,1,0,1h-.972a.258.258,0,0,0,0,.5Z" fill="#76bc21"/>
</svg>
