<svg xmlns="http://www.w3.org/2000/svg" width="28" height="28" viewBox="0 0 28 28"><defs><style>.a{fill:#d4eff5;}.b{fill:#65c4d9;}</style></defs><path class="a" d="M22.75,28H5.25A5.25,5.25,0,0,1,0,22.75V5.25A5.25,5.25,0,0,1,5.25,0h17.5A5.25,5.25,0,0,1,28,5.25v17.5A5.25,5.25,0,0,1,22.75,28Z"/><g transform="translate(-0.228 -0.273)"><path class="b" d="M18.619,18.333h-.285v.57h.437a.416.416,0,0,0,.133-.285A.286.286,0,0,0,18.619,18.333Z" transform="translate(-1.957 -1.91)"/><path class="b" d="M19.164,8H10.9A1.569,1.569,0,0,0,9.333,9.567V20.111A1.569,1.569,0,0,0,10.9,21.678h8.264a1.569,1.569,0,0,0,1.567-1.567V9.567A1.568,1.568,0,0,0,19.164,8ZM12.9,18.544a.427.427,0,1,1,0,.855H11.47a.427.427,0,0,1-.374-.634l1.072-1.93h-.7a.427.427,0,1,1,0-.855H12.9a.427.427,0,0,1,.374.634L12.2,18.544Zm2.28.427a.427.427,0,0,1-.855,0V16.406a.427.427,0,1,1,.855,0Zm2.351-.712h-.5v.712a.427.427,0,0,1-.855,0V16.406a.428.428,0,0,1,.427-.427h.712a1.141,1.141,0,0,1,1.14,1.14A1.121,1.121,0,0,1,17.526,18.259Z" transform="translate(-0.805 -0.564)"/></g></svg>